<?xml version="1.0" encoding="UTF-8"?>
<svg width="100px" height="100px" viewBox="0 0 100 100" version="1.1" xmlns="http://www.w3.org/2000/svg" xmlns:xlink="http://www.w3.org/1999/xlink">
    <title>btn_github</title>
    <defs>
        <rect id="path-1" x="0" y="0" width="100" height="100" rx="8"></rect>
    </defs>
    <g id="wireframe" stroke="none" stroke-width="1" fill="none" fill-rule="evenodd">
        <g id="Artboard" transform="translate(-950.000000, -1815.000000)">
            <g id="btn_github" transform="translate(950.000000, 1815.000000)">
                <mask id="mask-2" fill="white">
                    <use xlink:href="#path-1"></use>
                </mask>
                <use id="Mask" fill="#FCFCFC" xlink:href="#path-1"></use>
                <g id="github-logo-silhouette-in-a-square" mask="url(#mask-2)" fill="#000000" fill-rule="nonzero">
                    <path d="M97.3386525,0 L2.66861702,0 C1.23191489,0 0.0675531915,1.1643617 0.0675531915,2.60106383 L0.0675531915,98.1141844 C0.0675531915,99.5510638 1.23191489,100.715248 2.66861702,100.715248 L34.1398936,100.715248 L34.1398936,100.692376 C35.5602837,100.676064 36.6485816,99.8808511 36.6985816,98.5352837 C36.8276596,95.0379433 36.7365248,91.533156 36.7365248,88.1519504 C34.201773,88.2702128 31.7819149,88.5904255 29.3893617,88.4524823 C24.1124113,88.1485816 20.0574468,85.8969858 17.9544326,80.7297872 C16.7086879,77.668617 14.8315603,75.0503546 11.908156,73.3031915 C11.362234,72.9765957 10.8849291,72.4957447 10.4671986,72.0074468 C9.9212766,71.3705674 10.0234043,70.7163121 10.8859929,70.5414894 C11.7562057,70.364539 12.7069149,70.2409574 13.5650709,70.4014184 C16.935461,71.0340426 19.2661348,73.1478723 21.0501773,75.9593972 C24.5778369,81.5216312 30.0078014,83.2242908 36.116844,80.6556738 C36.4574468,80.5124113 36.8904255,80.1652482 36.9546099,79.8484043 C37.4471631,77.3861702 38.3673759,75.1411348 40.2218085,73.1728723 C38.1601064,72.7909574 36.2503546,72.5099291 34.3774823,72.0757092 C28.9843972,70.8278369 24.139539,68.5828014 20.5966312,64.1239362 C17.7060284,60.4867021 16.3842199,56.2289007 15.7765957,51.6973404 C14.825,44.5996454 15.676773,37.9556738 20.5510638,32.2836879 C20.7973404,31.9971631 20.9308511,31.4101064 20.8212766,31.0531915 C19.6005319,27.0643617 19.7870567,23.1090426 20.9969858,19.1647163 C21.6319149,17.0932624 21.8086879,16.9900709 23.9225177,17.2787234 C24.051773,17.2960993 24.1774823,17.3285461 24.3056738,17.3503546 C28.5429078,18.0514184 32.1900709,20.1031915 35.7828014,22.3060284 C36.2657801,22.602305 37.0014184,22.7867021 37.5320922,22.6576241 C46.1131206,20.5753546 54.6778369,20.5840426 63.2578014,22.6652482 C63.7558511,22.7856383 64.4210993,22.6141844 64.8973404,22.3647163 C66.8505319,21.343617 68.7202128,20.1565603 70.6984043,19.1884752 C72.9998227,18.0632979 75.4239362,17.216844 78.0336879,17.2634752 C78.4904255,17.2721631 79.1969858,17.7083333 79.3498227,18.1120567 C80.9200355,22.2723404 81.2510638,26.5118794 79.9998227,30.8414894 C79.8663121,31.3037234 80.0648936,31.9624113 80.3134752,32.4180851 C81.5484043,34.6838652 83.2725177,36.7748227 84.0539007,39.1781915 C86.4358156,46.5037234 85.5677305,53.7578014 82.3253546,60.6427305 C79.3542553,66.9537234 73.8441489,70.1515957 67.3216312,71.8010638 C65.1187943,72.3578014 62.8618794,72.6962766 60.485461,73.1629433 C63.5996454,76.4161348 64.0879433,80.3863475 64.0326241,84.5445035 C63.9751773,88.8338652 63.9904255,93.1244681 63.9881206,97.4148936 C63.9870567,99.4929078 64.8941489,100.640957 66.477305,100.708156 C66.4762411,100.715248 99.9388298,100.715248 99.9388298,100.715248 L99.9388298,2.60106383 C99.9388298,1.1643617 98.7742908,0 97.3386525,0 Z" id="Path"></path>
                </g>
            </g>
        </g>
    </g>
</svg>