<?xml version="1.0" encoding="UTF-8"?>
<svg width="100px" height="100px" viewBox="0 0 100 100" version="1.1" xmlns="http://www.w3.org/2000/svg" xmlns:xlink="http://www.w3.org/1999/xlink">
    <title>btn_fb</title>
    <g id="wireframe" stroke="none" stroke-width="1" fill="none" fill-rule="evenodd">
        <g id="Artboard" transform="translate(-690.000000, -1813.000000)" fill-rule="nonzero">
            <g id="btn_fb" transform="translate(690.000000, 1813.000000)">
                <path d="M94.480133,-1.76722414e-07 L5.51528926,-1.76722414e-07 C2.46887207,0.00152587891 -1.76722414e-07,2.47268672 -1.76722414e-07,5.51986699 L-1.76722414e-07,94.4847107 C0.00152587891,97.5311279 2.47268672,99.9999998 5.51986699,99.9999998 L94.480133,99.9999998 C97.5280762,99.9999998 99.9999998,97.530365 99.9999998,94.4824219 C99.9999998,94.481659 99.9999998,94.4808961 99.9999998,94.480133 L99.9999998,5.51528926 C99.9984742,2.46887207 97.5273133,-1.76722414e-07 94.480133,-1.76722414e-07 Z" id="Path" fill="#4267B2"></path>
                <path d="M69.0429688,100 L69.0429688,61.328125 L82.0800781,61.328125 L84.0332031,46.1914063 L69.0429688,46.1914063 L69.0429688,36.5509033 C69.0429688,32.1784973 70.2568055,29.1992188 76.5266418,29.1992188 L84.4726562,29.1992188 L84.4726562,15.6974793 C83.09021,15.5136109 78.3470154,15.1023865 72.8279113,15.1023865 C61.3044738,15.1023865 53.4179688,22.1336365 53.4179688,35.0517273 L53.4179688,46.1914063 L40.4296875,46.1914063 L40.4296875,61.328125 L53.4179688,61.328125 L53.4179688,100 L69.0429688,100 Z" id="Path" fill="#FFFFFF"></path>
            </g>
        </g>
    </g>
</svg>